<?xml version="1.0" encoding="utf-8"?>
<!-- Generator: Adobe Illustrator 14.0.0, SVG Export Plug-In . SVG Version: 6.00 Build 43363)  -->
<!DOCTYPE svg PUBLIC "-//W3C//DTD SVG 1.1//EN" "http://www.w3.org/Graphics/SVG/1.1/DTD/svg11.dtd">
<svg version="1.1" id="レイヤー_1" xmlns="http://www.w3.org/2000/svg" xmlns:xlink="http://www.w3.org/1999/xlink" x="0px"
	 y="0px" width="356px" height="76px" viewBox="-38.187 0 356 76" enable-background="new -38.187 0 356 76" xml:space="preserve">
<g>
	<g>
		<path fill="#FFFFFF" d="M36.925,5.176h8.253l11.677,40.504h0.141L68.708,5.176h8.256L59.961,58.353h-6.067L36.925,5.176z"/>
		<path fill="#FFFFFF" d="M80.172,5.176h7.362v7.583h-7.362V5.176z M80.172,20.493h7.362v37.859h-7.362V20.493z"/>
		<path fill="#FFFFFF" d="M95.994,20.493h7.362v4.014h0.141c2.424-2.991,5.6-4.486,9.53-4.486c3.034,0,5.812,1.107,8.33,3.319
			c2.495,2.237,3.8,5.52,3.918,9.848v25.166h-7.36v-22.57c0-2.653-0.684-4.672-2.051-6.062c-1.341-1.411-3.076-2.117-5.194-2.117
			c-2.12,0-3.864,0.706-5.229,2.117c-1.39,1.388-2.086,3.409-2.086,6.062v22.57h-7.36V20.493z"/>
		<path fill="#FFFFFF" d="M128.958,20.493h7.802l8.684,26.521h0.142l8.647-26.521h7.836l-15.776,45.699
			c-1.01,2.846-2.412,4.816-4.202,5.908c-1.812,1.045-3.86,1.569-6.143,1.569h-2.435v-7.146h2.154c0.965,0,1.858-0.268,2.682-0.804
			c0.823-0.561,1.402-1.387,1.729-2.484l2.012-6.357L128.958,20.493z"/>
		<path fill="#FFFFFF" d="M165.531,5.176h7.361v43.439c0,1.728,0.924,2.589,2.762,2.589h2.556v7.143h-3.286
			c-2.682,0-4.895-0.69-6.636-2.068c-1.833-1.401-2.75-3.765-2.75-7.083L165.531,5.176L165.531,5.176z"/>
		<path fill="#FFFFFF" d="M183.141,5.176h7.362v7.583h-7.362V5.176z M183.141,20.493h7.362v37.859h-7.362V20.493z"/>
		<path fill="#FFFFFF" d="M196.554,52.329l18.37-25.129H196.98v-6.708h26.92v6.064l-18.965,24.647H223.9v7.143h-27.347V52.329
			L196.554,52.329z"/>
		<path fill="#FFFFFF" d="M235.784,42.301c0,3.041,0.847,5.353,2.544,6.935c1.579,1.605,3.652,2.408,6.222,2.408
			c2.993,0,5.672-1.23,8.024-3.689l5.337,4.711c-3.743,4.131-8.146,6.173-13.208,6.123c-1.93,0-3.813-0.292-5.65-0.875
			c-0.921-0.315-1.812-0.74-2.682-1.276c-0.921-0.461-1.777-1.032-2.576-1.715c-1.554-1.411-2.813-3.378-3.777-5.908
			c-1.062-2.43-1.594-5.592-1.594-9.481c0-3.745,0.462-6.856,1.379-9.338c0.923-2.529,2.096-4.523,3.528-5.981
			c1.46-1.483,3.096-2.553,4.91-3.208c1.788-0.657,3.553-0.986,5.296-0.986c4.19,0.048,7.733,1.47,10.634,4.268
			c2.942,2.846,4.435,6.76,4.485,11.746v6.267L235.784,42.301L235.784,42.301z M251.291,36.033
			c-0.095-2.957-0.862-5.191-2.302-6.706c-1.416-1.441-3.233-2.164-5.452-2.164c-2.22,0-4.033,0.721-5.448,2.164
			c-1.393,1.515-2.163,3.751-2.302,6.706H251.291z"/>
		<path fill="#FFFFFF" d="M265.944,50.769h7.364v7.584h-7.364V50.769z"/>
		<path fill="#FFFFFF" d="M281.986,5.176h7.359v7.583h-7.359V5.176z M281.986,20.493h7.359v37.859h-7.359V20.493z"/>
		<path fill="#FFFFFF" d="M298.245,8.969h7.36v11.524h5.371v5.834h-5.371v22.071c-0.05,1.922,0.822,2.856,2.615,2.81h2.756v7.145
			h-3.844c-2.588,0-4.704-0.826-6.349-2.479c-1.693-1.58-2.539-3.865-2.539-6.854V26.326h-3.696v-5.834h3.696V8.969L298.245,8.969z"
			/>
	</g>
</g>
<g>
	<g>
		<path fill="#FFFFFF" d="M-10.941,2.155C-8.285,1.402-5.481,1-2.583,1c16.934,0,30.663,13.729,30.663,30.664
			c0,16.932-13.729,30.662-30.663,30.662c-2.899,0-5.701-0.402-8.36-1.153L-11,36.224c1.62,2.984,4.783,5.009,8.417,5.009
			c5.287,0,9.573-4.285,9.573-9.57c0-5.287-4.287-9.573-9.573-9.573c-3.591,0-6.721,1.978-8.359,4.904L-10.941,2.155z"/>
		<circle fill="#FFFFFF" cx="-2.583" cy="31.664" r="1.54"/>
		<path fill="#FFFFFF" d="M-30.46,42.138c-0.708,0-1.283-0.572-1.283-1.281V22.471c0-0.708,0.574-1.282,1.283-1.282
			c0.71,0,1.282,0.574,1.282,1.282v18.386C-29.178,41.565-29.75,42.138-30.46,42.138L-30.46,42.138z"/>
		<path fill="#FFFFFF" d="M-25.329,51.464c-0.709,0-1.283-0.574-1.283-1.282V13.144c0-0.705,0.573-1.282,1.283-1.282
			s1.283,0.572,1.283,1.282v37.038C-24.046,50.89-24.619,51.464-25.329,51.464L-25.329,51.464z"/>
		<path fill="#FFFFFF" d="M-20.199,56.435c-0.708,0-1.283-0.574-1.283-1.283V8.173c0-0.708,0.573-1.282,1.283-1.282
			c0.71,0,1.283,0.573,1.283,1.282v46.978C-18.916,55.86-19.488,56.435-20.199,56.435L-20.199,56.435z"/>
		<path fill="#FFFFFF" d="M-15.068,59.56c-0.708,0-1.282-0.575-1.282-1.283V5.049c0-0.709,0.574-1.283,1.282-1.283
			c0.709,0,1.284,0.574,1.284,1.283v53.227C-13.785,58.984-14.358,59.56-15.068,59.56L-15.068,59.56z"/>
	</g>
</g>
</svg>
